HIERARCHY
ROOT Hips
{
    OFFSET 0.000000 0.000000 0.000000
    CHANNELS 6 Xposition Yposition Zposition Zrotation Xrotation Yrotation
    JOINT Spine
    {
        OFFSET -0.000000 7.236184 0.000000
        CHANNELS 3 Zrotation Xrotation Yrotation
        JOINT Spine1
        {
            OFFSET -0.000000 20.420147 0.000000
            CHANNELS 3 Zrotation Xrotation Yrotation
            JOINT Neck
            {
                OFFSET -0.000000 20.336288 1.848754
                CHANNELS 3 Zrotation Xrotation Yrotation
                JOINT Head
                {
                    OFFSET -0.000000 12.354461 -1.764923
                    CHANNELS 3 Zrotation Xrotation Yrotation
                    End Site
                    {
                        OFFSET -0.000000 22.061537 0.000000
                    }
                }
            }
            JOINT LeftShoulder
            {
                OFFSET 3.573296 18.396038 -0.314103
                CHANNELS 3 Zrotation Xrotation Yrotation
                JOINT LeftArm
                {
                    OFFSET 10.880760 0.000000 0.000000
                    CHANNELS 3 Zrotation Xrotation Yrotation
                    JOINT LeftForeArm
                    {
                        OFFSET 27.185530 0.000000 0.000000
                        CHANNELS 3 Zrotation Xrotation Yrotation
                        JOINT LeftHand
                        {
                            OFFSET 27.825975 0.000000 0.000000
                            CHANNELS 3 Zrotation Xrotation Yrotation
                            End Site
                            {
                                OFFSET 13.236923 0.000000 0.000000
                            }
                        }
                    }
                }
            }
            JOINT RightShoulder
            {
                OFFSET -3.474926 18.396038 -0.314103
                CHANNELS 3 Zrotation Xrotation Yrotation
                JOINT RightArm
                {
                    OFFSET -10.880760 0.000000 0.000000
                    CHANNELS 3 Zrotation Xrotation Yrotation
                    JOINT RightForeArm
                    {
                        OFFSET -27.185530 0.000000 0.000000
                        CHANNELS 3 Zrotation Xrotation Yrotation
                        JOINT RightHand
                        {
                            OFFSET -27.825975 0.000000 0.000000
                            CHANNELS 3 Zrotation Xrotation Yrotation
                            End Site
                            {
                                OFFSET -13.236923 0.000000 0.000000
                            }
                        }
                    }
                }
            }
        }
    }
    JOINT LeftUpLeg
    {
        OFFSET 8.824615 0.000000 0.000000
        CHANNELS 3 Zrotation Xrotation Yrotation
        JOINT LeftLeg
        {
            OFFSET -0.000000 -35.111282 0.000000
            CHANNELS 3 Zrotation Xrotation Yrotation
            JOINT LeftFoot
            {
                OFFSET -0.000000 -42.324711 0.000000
                CHANNELS 3 Zrotation Xrotation Yrotation
                JOINT LeftToeBase
                {
                    OFFSET -0.000000 -5.735999 13.236923
                    CHANNELS 3 Zrotation Xrotation Yrotation
                    End Site
                    {
                        OFFSET -0.000000 0.000000 3.529846
                    }
                }
            }
        }
    }
    JOINT RightUpLeg
    {
        OFFSET -8.824615 0.000000 0.000000
        CHANNELS 3 Zrotation Xrotation Yrotation
        JOINT RightLeg
        {
            OFFSET -0.000000 -35.111282 0.000000
            CHANNELS 3 Zrotation Xrotation Yrotation
            JOINT RightFoot
            {
                OFFSET -0.000000 -42.324711 0.000000
                CHANNELS 3 Zrotation Xrotation Yrotation
                JOINT RightToeBase
                {
                    OFFSET -0.000000 -5.735999 13.236923
                    CHANNELS 3 Zrotation Xrotation Yrotation
                    End Site
                    {
                        OFFSET -0.000000 0.000000 3.529846
                    }
                }
            }
        }
    }
}
MOTION
Frames:    11
Frame Time:    0.008333
5.615478    85.586975    102.042351    13.061677    25.413813    -97.706276    -3.520703    -7.997048    2.796278    0.414093    9.037436    3.009730    2.130386    20.969868    -10.551229    13.969634    10.113355    -10.150748    1.739611    13.909042    -4.228584    -35.240936    35.892643    -42.475494    33.173889    -34.195702    -106.474586    57.607220    6.360445    -10.097368    8.941862    19.094725    -6.247535    46.293354    34.235310    34.788143    -4.620648    -12.622512    8.776733    -25.117777    -10.524126    -8.009281    25.039917    -22.629288    -0.101106    2.328891    22.018326    -20.082939    1.477519    -9.156199    -7.898625    2.397066    2.118366    -2.647048    -33.003502    -23.442144    -6.531764    3.620339    15.154579    -0.984113    9.552390    -0.227161    -10.448916    1.082502    0.551484    -1.169926    
5.584491    85.574165    102.093185    12.976192    25.329685    -97.384125    -3.551131    -7.988845    2.752276    0.393481    9.090367    2.969050    2.107912    21.128838    -10.674191    14.055026    10.217210    -10.285707    1.775811    13.833501    -4.222334    -35.105259    35.798687    -42.881725    33.588924    -33.567337    -105.054886    57.413784    6.417682    -10.176861    8.938273    19.118092    -6.265422    46.220184    34.527187    34.758659    -4.585929    -12.682363    8.995704    -25.480221    -10.539595    -8.065568    24.906420    -22.666758    -0.027926    2.265044    21.917049    -20.296619    1.337015    -9.095030    -8.002730    2.469331    2.129691    -2.726790    -32.831535    -23.328083    -6.562483    3.634409    16.026548    -0.833972    9.492968    -0.217337    -10.583306    1.086832    0.542092    -1.174620    
5.549614    85.561928    102.143654    12.897080    25.247456    -97.059586    -3.583545    -7.989737    2.712784    0.385636    9.134895    2.932331    2.087942    21.289841    -10.806151    14.158095    10.320062    -10.429175    1.824447    13.755033    -4.206860    -34.994167    35.764847    -43.270077    34.007938    -32.890434    -103.551193    57.223125    6.451857    -10.285169    8.933151    19.139278    -6.282813    46.147346    34.812832    34.721806    -4.537611    -12.751365    9.196669    -25.809355    -10.566602    -8.129183    24.775438    -22.707428    0.044352    2.200359    21.815460    -20.506226    1.190944    -9.039444    -8.112438    2.533534    2.142283    -2.797621    -32.642300    -23.185390    -6.531089    3.668410    16.854593    -0.757352    9.432559    -0.216408    -10.727137    1.090576    0.534959    -1.178678    
5.511610    85.550102    102.193520    12.825706    25.166212    -96.737656    -3.618931    -7.999381    2.677779    0.389995    9.170530    2.899632    2.068679    21.449860    -10.944842    14.278166    10.420181    -10.578787    1.885468    13.674218    -4.184381    -34.902737    35.787399    -43.647167    34.427040    -32.167511    -101.967598    57.038338    6.466355    -10.411786    8.925784    19.158293    -6.298304    46.073437    35.092060    34.680893    -4.476805    -12.826085    9.378453    -26.095436    -10.603002    -8.197510    24.646559    -22.750599    0.113027    2.135217    21.714104    -20.704456    1.039202    -8.990549    -8.228076    2.588010    2.155672    -2.857705    -32.437691    -23.020227    -6.443211    3.722610    17.636499    -0.744021    9.371988    -0.223946    -10.878360    1.093598    0.529234    -1.181952    
5.470650    85.538284    102.243317    12.762162    25.083845    -96.418182    -3.658564    -8.017379    2.646754    0.405688    9.197353    2.870621    2.049026    21.608154    -11.090514    14.415222    10.517041    -10.734794    1.959636    13.591003    -4.156897    -34.823727    35.863029    -44.026066    34.849709    -31.390129    -100.282280    56.859528    6.464343    -10.549069    8.915248    19.175241    -6.310854    45.997456    35.367714    34.637897    -4.403494    -12.903066    9.542906    -26.334881    -10.646124    -8.268246    24.517569    -22.796150    0.176596    2.068538    21.611948    -20.887465    0.879710    -8.948337    -8.351397    2.632775    2.169486    -2.907062    -32.216747    -22.836079    -6.303807    3.798014    18.382851    -0.781669    9.311207    -0.240215    -11.039250    1.095351    0.523354    -1.183857    
5.427719    85.526360    102.292587    12.707586    24.999905    -96.106941    -3.702366    -8.042909    2.619810    0.430990    9.215319    2.845462    2.027957    21.760498    -11.240423    14.566660    10.608959    -10.894385    2.045594    13.507212    -4.127241    -34.751835    35.987305    -44.410130    35.270473    -30.566135    -98.507927    56.689640    6.447681    -10.688316    8.900975    19.189888    -6.319510    45.918983    35.638035    34.596008    -4.319581    -12.977937    9.689069    -26.521549    -10.692896    -8.337774    24.388844    -22.843113    0.232504    2.000514    21.509882    -21.048489    0.713911    -8.913052    -8.481539    2.666499    2.181793    -2.944233    -31.982870    -22.639936    -6.122033    3.893065    19.090157    -0.857887    9.251987    -0.264975    -11.207932    1.095698    0.516560    -1.184243    
5.383341    85.514053    102.341438    12.661977    24.913195    -95.805672    -3.750848    -8.075144    2.596570    0.464653    9.225070    2.823954    2.004347    21.904875    -11.393165    14.730932    10.694528    -11.056232    2.142040    13.423779    -4.098025    -34.682606    36.155975    -44.803997    35.686466    -29.694717    -96.640701    56.527390    6.416633    -10.825735    8.882318    19.202469    -6.323782    45.837208    35.903820    34.558147    -4.226501    -13.047235    9.818238    -26.654762    -10.740269    -8.403828    24.259628    -22.891016    0.280080    1.930365    21.407763    -21.185247    0.542068    -8.884015    -8.617936    2.689386    2.190654    -2.969456    -31.737249    -22.436134    -5.906785    4.006639    19.763926    -0.959580    9.195553    -0.298364    -11.385740    1.094163    0.508227    -1.182598    
5.338358    85.501251    102.389694    12.625508    24.823351    -95.517860    -3.803027    -8.113100    2.576900    0.503854    9.227604    2.806055    1.978622    22.038536    -11.546930    14.904094    10.771881    -11.218234    2.246278    13.343032    -4.071938    -34.613136    36.361073    -45.207409    36.089329    -28.780207    -94.693703    56.371986    6.371644    -10.957231    8.859407    19.212692    -6.323346    45.751591    36.164555    34.526955    -4.126283    -13.107788    9.931337    -26.736008    -10.785501    -8.463778    24.130405    -22.939072    0.319351    1.857794    21.306025    -21.295959    0.365622    -8.860299    -8.759179    2.701363    2.193605    -2.982664    -31.482681    -22.229919    -5.669132    4.136332    20.405239    -1.074397    9.143468    -0.340202    -11.572630    1.090351    0.498407    -1.178493    
5.292959    85.487709    102.437744    12.597433    24.729029    -95.242874    -3.858749    -8.156090    2.560344    0.546700    9.224284    2.791479    1.950073    22.160366    -11.701303    15.085217    10.840483    -11.380123    2.356255    13.265408    -4.051609    -34.543503    36.594856    -45.621742    36.470959    -27.812346    -92.659515    56.220524    6.313369    -11.081666    8.832585    19.220686    -6.318255    45.659260    36.423752    34.505253    -4.020072    -13.158342    10.031140    -26.769093    -10.827128    -8.516695    23.999996    -22.986734    0.352407    1.782498    21.203684    -21.381708    0.183511    -8.840407    -8.906385    2.703392    2.188497    -2.984930    -31.218462    -22.022930    -5.417985    4.280355    21.023176    -1.192769    9.096624    -0.390870    -11.770268    1.083517    0.487829    -1.171124    
5.247914    85.473457    102.485336    12.577339    24.630285    -94.983994    -3.916699    -8.202974    2.546793    0.590194    9.216716    2.780208    1.919230    22.268183    -11.853955    15.270375    10.898284    -11.539228    2.468065    13.193274    -4.039033    -34.474964    36.844391    -46.042789    36.814823    -26.793880    -90.562393    56.071976    6.243896    -11.196542    8.802570    19.225809    -6.308605    45.559711    36.681225    34.495213    -3.910642    -13.196953    10.118882    -26.758881    -10.862942    -8.560977    23.869396    -23.032606    0.381803    1.704903    21.101013    -21.445047    -0.002223    -8.822587    -9.056668    2.696202    2.172586    -2.977075    -30.947441    -21.819370    -5.166119    4.434482    21.617941    -1.305472    9.056103    -0.449643    -11.976290    1.072801    0.477147    -1.159557    
5.203397    85.458466    102.532684    12.563981    24.526264    -94.741653    -3.976256    -8.252616    2.536012    0.632114    9.206212    2.772120    1.886785    22.361322    -12.004142    15.456550    10.944414    -11.694767    2.578511    13.127995    -4.035731    -34.409626    37.098572    -46.468826    37.107582    -25.717583    -88.407158    55.925968    6.164536    -11.301996    8.769982    19.228104    -6.294479    45.451378    36.938709    34.498585    -3.799528    -13.222772    10.197096    -26.711304    -10.891506    -8.596254    23.738178    -23.075018    0.411952    1.625493    20.997189    -21.490250    -0.191613    -8.805442    -9.209376    2.681882    2.143689    -2.961413    -30.669523    -21.620771    -4.923978    4.594699    22.196140    -1.406647    9.022954    -0.515457    -12.187367    1.057472    0.467504    -1.143005    
